<svg xmlns="http://www.w3.org/2000/svg" viewBox="0 0 422.61 122.08"><defs><style>.a{fill:#52b261;}.b{fill:#ede5d3;}</style></defs><path class="a" d="M30.82,89.41v32.67H19.11A19.12,19.12,0,0,1,0,103V89.41Z"/><path class="b" d="M80.1,54.92V67.16A10.22,10.22,0,0,1,69.88,77.38H10.22A10.22,10.22,0,0,1,0,67.16v-48A19.12,19.12,0,0,1,19.11,0H30.82V44.7H69.88A10.22,10.22,0,0,1,80.1,54.92Z"/><path class="a" d="M80.1,9.56V21c0,5.28-4.58,9.55-10.22,9.55H59.51c-5.65,0-10.23-4.27-10.23-9.55V9.56C49.28,4.28,53.86,0,59.51,0H69.88C75.52,0,80.1,4.28,80.1,9.56Z"/><rect class="a" x="49.28" y="89.41" width="30.82" height="32.66" rx="10.22"/><path class="b" d="M132.1,89.41h35.53a10.23,10.23,0,0,1,10.22,10.23v12.21a10.23,10.23,0,0,1-10.22,10.23H108a10.23,10.23,0,0,1-10.22-10.23V10.22A10.23,10.23,0,0,1,108,0h59.66a10.23,10.23,0,0,1,10.22,10.22V22.44a10.22,10.22,0,0,1-10.22,10.22H132.1a3.53,3.53,0,0,0-3.53,3.53v49.7A3.52,3.52,0,0,0,132.1,89.41Z"/><path class="b" d="M324.86,10.22V111.85a10.23,10.23,0,0,1-10.23,10.23H304.26A10.23,10.23,0,0,1,294,111.85V36.19a3.53,3.53,0,0,0-3.53-3.53H279.13a3.53,3.53,0,0,0-3.53,3.53v75.66a10.23,10.23,0,0,1-10.22,10.23H255a10.22,10.22,0,0,1-10.22-10.23V36.19a3.53,3.53,0,0,0-3.53-3.53H229.85a3.53,3.53,0,0,0-3.53,3.53v75.66a10.23,10.23,0,0,1-10.22,10.23H205.72a10.23,10.23,0,0,1-10.22-10.23V10.22A10.23,10.23,0,0,1,205.72,0H314.63A10.23,10.23,0,0,1,324.86,10.22Z"/><path class="b" d="M422.61,19.11V103a19.12,19.12,0,0,1-19.11,19.11H391.79V36.19a3.53,3.53,0,0,0-3.53-3.53h-11.4a3.53,3.53,0,0,0-3.53,3.53v75.66a10.23,10.23,0,0,1-10.23,10.23H352.73a10.22,10.22,0,0,1-10.22-10.23V10.22A10.22,10.22,0,0,1,352.73,0H403.5A19.12,19.12,0,0,1,422.61,19.11Z"/></svg>